HIERARCHY
ROOT Hips
{
	OFFSET 0.000000 0.000000 0.000000
	CHANNELS 6 Xposition Yposition Zposition Zrotation Yrotation Xrotation 
	JOINT LHipJoint
	{
		OFFSET 0.000000 0.000000 0.000000
		CHANNELS 3 Zrotation Yrotation Xrotation
		JOINT LeftUpLeg
		{
			OFFSET 1.363060 -1.794630 0.839290
			CHANNELS 3 Zrotation Yrotation Xrotation
			JOINT LeftLeg
			{
				OFFSET 2.448110 -6.726130 0.000000
				CHANNELS 3 Zrotation Yrotation Xrotation
				JOINT LeftFoot
				{
					OFFSET 2.562200 -7.039590 0.000000
					CHANNELS 3 Zrotation Yrotation Xrotation
					JOINT LeftToeBase
					{
						OFFSET 0.157640 -0.433110 2.322550
						CHANNELS 3 Zrotation Yrotation Xrotation
						End Site
						{
							OFFSET 0.000000 0.000000 0.000000
						}
					}
				}
			}
		}
	}
	JOINT RHipJoint
	{
		OFFSET 0.000000 0.000000 0.000000
		CHANNELS 3 Zrotation Yrotation Xrotation
		JOINT RightUpLeg
		{
			OFFSET -1.305520 -1.794630 0.839290
			CHANNELS 3 Zrotation Yrotation Xrotation
			JOINT RightLeg
			{
				OFFSET -2.542530 -6.985550 0.000000
				CHANNELS 3 Zrotation Yrotation Xrotation
				JOINT RightFoot
				{
					OFFSET -2.568260 -7.056230 0.000000
					CHANNELS 3 Zrotation Yrotation Xrotation
					JOINT RightToeBase
					{
						OFFSET -0.164730 -0.452590 2.363150
						CHANNELS 3 Zrotation Yrotation Xrotation
						End Site
						{
							OFFSET 0.000000 0.000000 0.000000
						}
					}
				}
			}
		}
	}
}
MOTION
Frames: 14
Frame Time: 0.008333
4.320918 16.815594 1.135727 -96.077559 -89.688649 97.921976 -8.729410 1.877307 2.303199 -15.129446 8.567075 -29.062406 -2.552184 0.069851 16.597173 0.782509 5.413978 0.287079 0.988200 0.000000 -20.590900 11.435845 -3.661411 -1.406464 2.277646 -19.292387 2.756355 1.570946 -1.501374 25.264024 -0.586281 -1.657140 -6.397552 -0.076500 -0.000000 -86.424800
4.189371 16.817277 1.150675 -96.649371 -89.865241 98.258298 -8.709474 1.952454 2.228869 -15.285910 8.724602 -28.797408 -2.531227 0.155947 17.611938 0.797069 5.402506 -0.169034 0.921400 0.000000 -19.453200 11.635632 -3.657720 -1.615930 1.290355 -20.394125 1.595611 1.357804 -1.800337 28.473056 -0.502914 -1.299100 -4.829398 -0.120000 0.000001 -88.610500
4.059881 16.819318 1.165870 82.468499 -89.953922 -81.065331 -8.685368 2.029287 2.165145 -15.454880 8.853706 -28.504951 -2.522677 0.229762 18.509634 0.811156 5.372790 -0.706906 0.844900 0.000000 -18.563800 11.831434 -3.624101 -1.813813 0.340489 -21.445585 0.347483 1.119713 -2.076040 31.681173 -0.457848 -1.080246 -3.126856 -0.147099 -0.000000 -90.198200
3.932453 16.821077 1.181058 81.639102 -89.772000 -80.405045 -8.659358 2.102372 2.113817 -15.629177 8.938120 -28.196676 -2.522188 0.291449 19.303905 0.827320 5.346347 -1.308056 0.763900 0.000000 -17.918900 12.015866 -3.561243 -1.995586 -0.536393 -22.409260 -0.977304 0.870870 -2.325144 34.841948 -0.455620 -1.027367 -1.403865 -0.165100 -0.000000 -91.081600
3.806882 16.822221 1.196373 81.460609 -89.599911 -80.342529 -8.637136 2.161864 2.075468 -15.795765 8.975787 -27.898142 -2.523917 0.339268 20.011718 0.848154 5.345567 -1.953991 0.682700 0.000000 -17.510001 12.179054 -3.478935 -2.150615 -1.285460 -23.230204 -2.395892 0.626918 -2.551182 37.933573 -0.497921 -1.179652 0.218550 -0.190400 -0.000000 -91.237400
3.683299 16.822370 1.211336 81.871477 -89.438737 -80.823195 -8.615871 2.208478 2.048907 -15.951597 8.958802 -27.606723 -2.524722 0.375350 20.648739 0.876891 5.393181 -2.629900 0.603700 -0.000000 -17.294200 12.320975 -3.376852 -2.282598 -1.899790 -23.906705 -3.885246 0.399451 -2.755495 40.919818 -0.577626 -1.537594 1.614473 -0.239501 -0.000000 -90.711000
3.561596 16.821551 1.225966 83.112285 -89.296229 -82.083648 -8.598394 2.237625 2.031639 -16.087027 8.894645 -27.334481 -2.520724 0.399857 21.232544 0.915585 5.503896 -3.324605 0.527400 -0.000000 -17.228600 12.437731 -3.264037 -2.387735 -2.352833 -24.415287 -5.449331 0.197029 -2.944786 43.785012 -0.688091 -2.113638 2.682326 -0.327299 0.000000 -89.587500
3.441950 16.819869 1.240066 85.207813 -89.174368 -84.155982 -8.586208 2.247865 2.020038 -16.196185 8.792643 -27.084122 -2.509689 0.414244 21.778839 0.965435 5.684737 -4.031000 0.452100 -0.000001 -17.260600 12.528394 -3.146599 -2.466880 -2.638053 -24.753325 -7.078258 0.023277 -3.124690 46.510547 -0.820931 -2.897112 3.348982 -0.458000 0.000000 -87.982000
3.324406 16.817753 1.253757 88.271371 -89.075573 -87.157348 -8.585178 2.235829 2.008413 -16.269741 8.673634 -26.859286 -2.489838 0.419374 22.301933 1.025987 5.930976 -4.746282 0.374900 -0.000000 -17.334200 12.589392 -3.033492 -2.519100 -2.746529 -24.912432 -8.765659 -0.121611 -3.301025 49.082410 -0.969757 -3.867773 3.584850 -0.623900 -0.000000 -85.970100
3.209125 16.815581 1.266991 92.171270 -88.994040 -90.967606 -8.599412 2.202641 1.992286 -16.305213 8.553630 -26.655169 -2.461589 0.417543 22.812003 1.095609 6.229295 -5.469410 0.292500 -0.000000 -17.403600 12.619403 -2.928147 -2.547970 -2.692435 -24.907665 -10.489763 -0.239704 -3.475553 51.480498 -1.127610 -4.974037 3.391196 -0.802000 -0.000000 -83.640000
3.096152 16.813829 1.279796 96.889979 -88.921356 -95.580361 -8.635944 2.148399 1.965534 -16.300428 8.460005 -26.466716 -2.426220 0.410544 23.315666 1.170695 6.555333 -6.199526 0.201600 -0.000000 -17.437900 12.614975 -2.835003 -2.555189 -2.490700 -24.748684 -12.229704 -0.333580 -3.648769 53.686299 -1.288765 -6.151837 2.806624 -0.962200 -0.000000 -81.073000
2.985478 16.812907 1.292263 101.921506 -88.852364 -100.498694 -8.696540 2.080833 1.929406 -16.254204 8.392667 -26.288717 -2.386720 0.402500 23.817126 1.248028 6.886102 -6.935275 0.100499 0.000000 -17.419000 12.576203 -2.749611 -2.547913 -2.165093 -24.473705 -13.958439 -0.406697 -3.815053 55.678877 -1.446299 -7.320510 1.895839 -1.073500 0.000000 -78.345600
2.876810 16.813137 1.304397 107.070275 -88.781743 -105.534874 -8.782426 2.005599 1.883416 -16.169652 8.366470 -26.117318 -2.346564 0.395691 24.314138 1.322835 7.192761 -7.671715 -0.010700 -0.000000 -17.361400 12.503987 -2.670839 -2.528374 -1.738319 -24.108262 -15.655885 -0.460837 -3.969563 57.440338 -1.592950 -8.398972 0.742608 -1.113900 -0.000000 -75.603000
2.769980 16.814679 1.316341 112.075079 -88.710529 -110.433054 -8.891815 1.929602 1.828111 -16.049051 8.390655 -25.951184 -2.309435 0.392856 24.807244 1.390112 7.445765 -8.404191 -0.130400 0.000000 -17.273200 12.401543 -2.595665 -2.500903 -1.231105 -23.686132 -17.304029 -0.496896 -4.106885 58.957983 -1.720332 -9.310211 -0.563375 -1.074400 -0.000000 -72.930700
